<svg width="28" height="20" viewBox="0 0 28 20" fill="none" xmlns="http://www.w3.org/2000/svg">
<g clip-path="url(#clip0_12_92)">
<path d="M25 0H3C1.34315 0 0 1.34315 0 3V17C0 18.6569 1.34315 20 3 20H25C26.6569 20 28 18.6569 28 17V3C28 1.34315 26.6569 0 25 0Z" fill="#0A17A7"/>
<path d="M27.3571 0H0.642857C-1.36904 0 -3 0.470101 -3 1.05V5.95C-3 6.5299 -1.36904 7 0.642857 7H27.3571C29.369 7 31 6.5299 31 5.95V1.05C31 0.470101 29.369 0 27.3571 0Z" fill="#0099B5"/>
<path d="M30.5 13H-2.5C-4.98528 13 -7 13.4701 -7 14.05V18.95C-7 19.5299 -4.98528 20 -2.5 20H30.5C32.9853 20 35 19.5299 35 18.95V14.05C35 13.4701 32.9853 13 30.5 13Z" fill="#1FB53A"/>
<path d="M28.1429 6H-0.142857C-2.2731 6 -4 6.53726 -4 7.2V12.8C-4 13.4627 -2.2731 14 -0.142857 14H28.1429C30.2731 14 32 13.4627 32 12.8V7.2C32 6.53726 30.2731 6 28.1429 6Z" fill="white"/>
<path d="M28.1429 13H-0.142857C-2.2731 13 -4 13.0672 -4 13.15V13.85C-4 13.9328 -2.2731 14 -0.142857 14H28.1429C30.2731 14 32 13.9328 32 13.85V13.15C32 13.0672 30.2731 13 28.1429 13Z" fill="#C8132B"/>
<path d="M28.1429 6H-0.142857C-2.2731 6 -4 6.06716 -4 6.15V6.85C-4 6.93284 -2.2731 7 -0.142857 7H28.1429C30.2731 7 32 6.93284 32 6.85V6.15C32 6.06716 30.2731 6 28.1429 6Z" fill="#C8132B"/>
<path fill-rule="evenodd" clip-rule="evenodd" d="M4.63007 1.10127C3.61312 1.13806 2.79999 1.97407 2.79999 3.00001C2.79999 4.02593 3.6131 4.86194 4.63004 4.89874C4.43195 4.96444 4.22013 5 4 5C2.89543 5 2 4.10457 2 3C2 1.89543 2.89543 1 4 1C4.22014 1 4.43198 1.03557 4.63007 1.10127Z" fill="white"/>
<path d="M6.5 4L6.61226 4.34549H6.97553L6.68164 4.55902L6.79389 4.90451L6.5 4.69098L6.20611 4.90451L6.31836 4.55902L6.02447 4.34549H6.38774L6.5 4Z" fill="white"/>
<path d="M8 4L8.11226 4.34549H8.47553L8.18164 4.55902L8.29389 4.90451L8 4.69098L7.70611 4.90451L7.81836 4.55902L7.52447 4.34549H7.88774L8 4Z" fill="white"/>
<path d="M9.5 4L9.61226 4.34549H9.97553L9.68164 4.55902L9.79389 4.90451L9.5 4.69098L9.20611 4.90451L9.31836 4.55902L9.02447 4.34549H9.38774L9.5 4Z" fill="white"/>
<path d="M11 4L11.1123 4.34549H11.4755L11.1816 4.55902L11.2939 4.90451L11 4.69098L10.7061 4.90451L10.8184 4.55902L10.5245 4.34549H10.8877L11 4Z" fill="white"/>
<path d="M12.5 4L12.6123 4.34549H12.9755L12.6816 4.55902L12.7939 4.90451L12.5 4.69098L12.2061 4.90451L12.3184 4.55902L12.0245 4.34549H12.3877L12.5 4Z" fill="white"/>
<path d="M8 2.5L8.11226 2.84549H8.47553L8.18164 3.05902L8.29389 3.40451L8 3.19098L7.70611 3.40451L7.81836 3.05902L7.52447 2.84549H7.88774L8 2.5Z" fill="white"/>
<path d="M9.5 2.5L9.61226 2.84549H9.97553L9.68164 3.05902L9.79389 3.40451L9.5 3.19098L9.20611 3.40451L9.31836 3.05902L9.02447 2.84549H9.38774L9.5 2.5Z" fill="white"/>
<path d="M11 2.5L11.1123 2.84549H11.4755L11.1816 3.05902L11.2939 3.40451L11 3.19098L10.7061 3.40451L10.8184 3.05902L10.5245 2.84549H10.8877L11 2.5Z" fill="white"/>
<path d="M12.5 2.5L12.6123 2.84549H12.9755L12.6816 3.05902L12.7939 3.40451L12.5 3.19098L12.2061 3.40451L12.3184 3.05902L12.0245 2.84549H12.3877L12.5 2.5Z" fill="white"/>
<path d="M9.5 1L9.61226 1.34549H9.97553L9.68164 1.55902L9.79389 1.90451L9.5 1.69098L9.20611 1.90451L9.31836 1.55902L9.02447 1.34549H9.38774L9.5 1Z" fill="white"/>
<path d="M11 1L11.1123 1.34549H11.4755L11.1816 1.55902L11.2939 1.90451L11 1.69098L10.7061 1.90451L10.8184 1.55902L10.5245 1.34549H10.8877L11 1Z" fill="white"/>
<path d="M12.5 1L12.6123 1.34549H12.9755L12.6816 1.55902L12.7939 1.90451L12.5 1.69098L12.2061 1.90451L12.3184 1.55902L12.0245 1.34549H12.3877L12.5 1Z" fill="white"/>
</g>
<defs>
<clipPath id="clip0_12_92">
<rect width="28" height="20" rx="2" fill="white"/>
</clipPath>
</defs>
</svg>
