<svg width="28" height="20" viewBox="0 0 28 20" fill="none" xmlns="http://www.w3.org/2000/svg">
<g clip-path="url(#clip0_12_31)">
<path d="M25 0H3C1.34315 0 0 1.34315 0 3V17C0 18.6569 1.34315 20 3 20H25C26.6569 20 28 18.6569 28 17V3C28 1.34315 26.6569 0 25 0Z" fill="#0A17A7"/>
<path d="M27.3571 0H0.642857C-1.36904 0 -3 0.470101 -3 1.05V5.95C-3 6.5299 -1.36904 7 0.642857 7H27.3571C29.369 7 31 6.5299 31 5.95V1.05C31 0.470101 29.369 0 27.3571 0Z" fill="white"/>
<path d="M30.5 13H-2.5C-4.98528 13 -7 13.4701 -7 14.05V18.95C-7 19.5299 -4.98528 20 -2.5 20H30.5C32.9853 20 35 19.5299 35 18.95V14.05C35 13.4701 32.9853 13 30.5 13Z" fill="#E6273E"/>
<path d="M28.1429 6H-0.142857C-2.2731 6 -4 6.53726 -4 7.2V12.8C-4 13.4627 -2.2731 14 -0.142857 14H28.1429C30.2731 14 32 13.4627 32 12.8V7.2C32 6.53726 30.2731 6 28.1429 6Z" fill="#0A17A7"/>
</g>
<defs>
<clipPath id="clip0_12_31">
<rect width="28" height="20" rx="2" fill="white"/>
</clipPath>
</defs>
</svg>
