<?xml version="1.0" encoding="UTF-8"?>
<!DOCTYPE svg PUBLIC "-//W3C//DTD SVG 1.1//EN" "http://www.w3.org/Graphics/SVG/1.1/DTD/svg11.dtd">
<!-- Creator: CorelDRAW 2017 -->
<svg xmlns="http://www.w3.org/2000/svg" xml:space="preserve" width="84.6666mm" height="18.6266mm" version="1.1" style="shape-rendering:geometricPrecision; text-rendering:geometricPrecision; image-rendering:optimizeQuality; fill-rule:evenodd; clip-rule:evenodd"
viewBox="0 0 8466.66 1862.66"
 xmlns:xlink="http://www.w3.org/1999/xlink">
 <defs>
  <style type="text/css">
   <![CDATA[
    .fil0 {fill:none}
    .fil5 {fill:#F23B6B}
    .fil6 {fill:#000034;fill-rule:nonzero}
    .fil4 {fill:#AE234D;fill-rule:nonzero}
    .fil2 {fill:url(#id0);fill-rule:nonzero}
    .fil1 {fill:url(#id1);fill-rule:nonzero}
    .fil3 {fill:url(#id2);fill-rule:nonzero}
   ]]>
  </style>
  <linearGradient id="id0" gradientUnits="userSpaceOnUse" x1="8334.53" y1="1505.4" x2="6655.6" y2="515.26">
   <stop offset="0" style="stop-opacity:1; stop-color:#FC1F7F"/>
   <stop offset="1" style="stop-opacity:1; stop-color:#FF8833"/>
  </linearGradient>
  <linearGradient id="id1" gradientUnits="userSpaceOnUse" xlink:href="#id0" x1="1975.64" y1="1599.4" x2="922.34" y2="471.08">
  </linearGradient>
  <linearGradient id="id2" gradientUnits="userSpaceOnUse" xlink:href="#id0" x1="2697.6" y1="1498.71" x2="2155.32" y2="859.65">
  </linearGradient>
 </defs>
 <g id="Слой_x0020_1">
  <metadata id="CorelCorpID_0Corel-Layer"/>
  <polygon class="fil0" points="-0,0 8466.66,0 8466.66,1862.66 -0,1862.66 "/>
  <g id="_2236595768384">
   <path class="fil1" d="M1011.7 508.82l221.09 382.95 221.65 -383.9c21.67,-37.71 69.8,-50.71 107.5,-29.04 12.88,7.4 22.88,17.88 29.59,29.99 193.11,334.48 386.17,668.57 579.3,1003.06 21.84,37.71 8.97,85.98 -28.73,107.81 -12.48,7.23 -26.1,10.65 -39.55,10.64l0 0.17c-794.37,0 -945.15,0 -1739.52,0 -43.67,0 -79.08,-35.41 -79.08,-79.08 0,-16.36 4.96,-31.57 13.49,-44.18 192.35,-333.15 384.82,-666.22 577.16,-999.37 21.67,-37.71 69.81,-50.71 107.51,-29.04 12.87,7.4 22.87,17.88 29.59,29.99z"/>
   <path class="fil2" d="M6783.98 660.19l333.02 0c115,0 210.82,40.34 287.49,120.98 77.46,79.87 116.2,179.29 116.2,298.29 0,118.98 -38.74,218.4 -116.2,298.27 -76.67,80.66 -172.49,120.98 -287.49,120.98l-333.02 0 0 -838.52zm165.31 680.4l167.71 0c72.67,0 131.76,-23.95 177.28,-71.87 45.52,-49.52 68.29,-112.61 68.29,-189.26 0,-77.48 -22.77,-140.15 -68.29,-188.07 -45.52,-48.71 -104.61,-73.08 -177.28,-73.08l-167.71 0 0 522.28zm1195.49 -276.71c73.47,42.32 110.21,106.21 110.21,191.67 0,71.06 -25.16,129.37 -75.47,174.88 -50.31,45.52 -112.2,68.28 -185.68,68.28l-355.76 0 0 -838.52 330.61 0c71.08,0 131.38,22.37 180.88,67.08 49.52,44.72 74.28,101.03 74.28,168.9 0,69.48 -26.36,125.38 -79.07,167.71zm-176.09 -249.16l-165.31 0 0 184.48 165.31 0c25.56,0 46.93,-8.79 64.09,-26.36 17.18,-17.57 25.75,-39.53 25.75,-65.87 0,-26.36 -8.38,-48.32 -25.16,-65.89 -16.76,-17.57 -38.32,-26.36 -64.68,-26.36zm-165.31 529.46l190.46 0c27.96,0 51.12,-9.38 69.49,-28.15 18.36,-18.76 27.54,-42.52 27.54,-71.26 0,-27.96 -9.18,-51.32 -27.54,-70.08 -18.37,-18.77 -41.53,-28.15 -69.49,-28.15l-190.46 0 0 197.64z"/>
   <path class="fil3" d="M2548.18 981.21c0,27.96 -9.97,51.91 -29.95,71.88 -19.96,19.96 -43.92,29.95 -71.87,29.95 -27.95,0 -51.91,-9.99 -71.88,-29.95 -19.96,-19.97 -29.93,-43.92 -29.93,-71.88 0,-27.94 9.97,-51.9 29.93,-71.87 19.97,-19.96 43.93,-29.95 71.88,-29.95 27.95,0 51.91,9.99 71.87,29.95 19.98,19.97 29.95,43.93 29.95,71.87zm0 428.85c0,27.96 -9.97,51.91 -29.95,71.87 -19.96,19.96 -43.92,29.95 -71.87,29.95 -27.95,0 -51.91,-9.99 -71.88,-29.95 -19.96,-19.96 -29.93,-43.91 -29.93,-71.87 0,-27.96 9.97,-51.91 29.93,-71.87 19.97,-19.97 43.93,-29.96 71.88,-29.96 27.95,0 51.91,9.99 71.87,29.96 19.98,19.96 29.95,43.91 29.95,71.87z"/>
   <path class="fil4" d="M1011.7 508.82l221.09 382.96 221.64 -383.92c21.68,-37.69 69.81,-50.7 107.52,-29.03 12.87,7.4 22.87,17.89 29.58,29.99l1.33 2.28 -233.87 405.09 0.01 0.61c0,34.73 -14.14,66.26 -36.97,89.09l-0.15 0.16c-22.84,22.83 -54.34,36.96 -89.09,36.96 -34.74,0 -66.26,-14.13 -89.09,-36.96l-0.16 -0.16c-22.82,-22.83 -36.96,-54.36 -36.96,-89.09l0.01 -0.62 -157.49 -272.81 -6.12 0.18 -6.05 -0.17 -519.78 900.02 2.09 7.17c2.71,10.49 4.17,21.14 4.17,31.73 0,17.06 -3.41,33.34 -9.59,48.2l-50.79 0c-43.68,0 -79.08,-35.41 -79.08,-79.08 0,-16.36 4.96,-31.57 13.49,-44.18 192.35,-333.15 384.82,-666.22 577.17,-999.38 21.65,-37.69 69.8,-50.7 107.5,-29.03 12.87,7.4 22.87,17.89 29.59,29.99z"/>
   <path class="fil5" d="M1629.98 365.83c45.72,-1.72 82.26,-38.78 82.26,-85.47 0,-46.69 -38.29,-85.54 -85.54,-85.54 -47.24,0 -85.53,52.65 -85.53,85.54 0,32.89 5.9,35.69 15.92,49.7l-292.81 507.18c-9.75,-3.85 -20.37,-5.97 -31.49,-5.97 -11.12,0 -21.74,2.12 -31.48,5.97l-174.59 -302.4c1.17,-5.65 1.79,-11.51 1.79,-17.5 0,-47.24 -38.29,-85.54 -85.53,-85.54 -47.24,0 -85.54,38.3 -85.54,85.54 0,5.9 0.61,11.67 1.75,17.23 -185.25,320.83 -370.59,641.6 -555.84,962.43 -2.04,-0.15 -4.09,-0.23 -6.15,-0.23 -47.25,0 -85.54,38.29 -85.54,85.53 0,47.25 38.29,85.54 85.54,85.54 47.24,0 85.53,-38.29 85.53,-85.54 0,-15.13 -3.93,-29.35 -10.83,-41.68l544.09 -942.1c8.48,2.82 17.55,4.35 26.99,4.35 9.43,0 18.51,-1.53 26.98,-4.34l177.89 308.13c-0.39,3.32 -0.59,6.71 -0.59,10.14 0,47.24 38.29,85.54 85.53,85.54 47.24,0 85.54,-38.3 85.54,-85.54 0,-3.43 -0.21,-6.81 -0.6,-10.14l312.25 -540.83z"/>
   <path class="fil6" d="M3428.92 883.01c68.69,0 123.6,22.37 164.72,67.07 41.12,44.72 61.68,104.62 61.68,179.69l0 368.93 -154.52 0 0 -358.15c0,-35.93 -8.79,-63.89 -26.34,-83.86 -17.58,-19.96 -42.34,-29.95 -74.28,-29.95 -35.13,0 -62.5,11.59 -82.06,34.74 -19.55,23.15 -29.34,56.7 -29.34,100.63l0 336.59 -154.53 0 0 -358.15c0,-35.93 -8.79,-63.89 -26.36,-83.86 -17.55,-19.96 -42.31,-29.95 -74.26,-29.95 -34.33,0 -61.7,11.78 -82.06,35.34 -20.36,23.55 -30.54,56.91 -30.54,100.03l0 336.59 -154.54 0 0 -598.94 154.54 0 0 63.51c35.92,-53.51 91.43,-80.26 166.49,-80.26 74.27,0 128.59,28.73 162.93,86.24 39.13,-57.51 98.63,-86.24 178.47,-86.24zm643.27 0c-174.66,0 -316.24,141.57 -316.24,316.23 0,174.66 141.58,316.24 316.24,316.24 59.09,0 114.38,-16.23 161.71,-44.44l0 27.66 154.52 0 0 -299.46 0 -299.48 -154.52 0 0 27.68c-47.33,-28.21 -102.62,-44.43 -161.71,-44.43zm-168.9 316.23c0,-93.28 75.61,-168.91 168.9,-168.91 93.26,0 168.89,75.63 168.89,168.91 0,93.28 -75.63,168.89 -168.89,168.89 -93.29,0 -168.9,-75.61 -168.9,-168.89zm788.2 -299.48l0 103.03c13.58,-37.53 36.75,-66.09 69.49,-85.64 32.72,-19.58 70.26,-29.36 112.6,-29.36l0 172.49c-47.11,-6.38 -89.45,3.2 -126.99,28.76 -36.72,24.75 -55.1,65.89 -55.1,123.39l0 286.27 -154.53 0 0 -598.94 154.53 0zm576.19 295.88l247.95 303.06 -179.67 0 -218.04 -271.91 0 271.91 -154.52 0 0 -838.51 154.52 0 0 503.12 206.05 -263.55 184.48 0 -240.77 295.88zm863.66 67.1l-451.61 0c19.97,75.06 76.28,112.58 168.91,112.58 59.09,0 103.82,-19.95 134.16,-59.88l124.58 71.86c-59.1,85.46 -146.14,128.18 -261.14,128.18 -99.02,0 -178.49,-29.94 -238.37,-89.85 -59.89,-59.88 -89.85,-135.34 -89.85,-226.39 0,-89.44 29.54,-164.5 88.64,-225.2 58.31,-60.7 134.16,-91.03 227.6,-91.03 88.65,0 160.92,30.33 216.81,91.03 57.51,60.7 86.25,135.76 86.25,225.2 0,16.78 -1.98,37.93 -5.98,63.5zm-453.99 -119.79l305.45 0c-8.79,-39.15 -26.56,-69.1 -53.31,-89.85 -26.75,-20.77 -58.48,-31.15 -95.23,-31.15 -41.53,0 -75.87,10.58 -103.01,31.75 -27.15,21.15 -45.12,50.92 -53.9,89.25zm892.41 -243.19l0 148.54 -135.34 0 0 249.17c0,20.77 5.18,35.93 15.56,45.51 10.38,9.59 25.56,14.98 45.52,16.18 19.96,1.19 44.73,1.01 74.26,-0.59l0 140.13c-104.61,11.99 -179.08,2.21 -223.39,-29.33 -44.33,-31.55 -66.48,-88.85 -66.48,-171.9l0 -249.17 -104.22 0 0 -148.54 104.22 0 0 -120.97 154.53 -46.72 0 167.69 135.34 0z"/>
  </g>
 </g>
</svg>
